<?xml version="1.0" encoding="utf-8"?>
<!-- Generator: Adobe Illustrator 23.0.5, SVG Export Plug-In . SVG Version: 6.00 Build 0)  -->
<svg version="1.1" id="Слой_1" xmlns="http://www.w3.org/2000/svg" xmlns:xlink="http://www.w3.org/1999/xlink" x="0px" y="0px"
	 width="158.6px" height="85px" viewBox="0 0 158.6 85" style="enable-background:new 0 0 158.6 85;" xml:space="preserve">
<g>
	<path d="M140.5,14.3c-11.8,7.9-24.3,13.8-36.8,17.8c-0.3,0.1-0.2,0.5,0.1,0.5c2.6-0.2,5.2-0.4,7.8-0.6c3.3-0.4,6.7-0.9,10.1-1.5
		C93.7,56,56,71.2,17.5,71.5C56,72.9,95,59.3,125,34.4c-1.2,3.3-2.5,6.6-3.9,10c-1.2,2.5-2.3,5.1-3.6,7.7c-0.2,0.3,0.3,0.6,0.5,0.3
		c9.7-11.8,17.5-24.5,23.1-37.6C141.4,14.5,140.9,14.1,140.5,14.3z"/>
</g>
</svg>
